<?xml version="1.0" standalone="no"?>
<!DOCTYPE svg PUBLIC "-//W3C//DTD SVG 20010904//EN"
 "http://www.w3.org/TR/2001/REC-SVG-20010904/DTD/svg10.dtd">
<svg version="1.0" xmlns="http://www.w3.org/2000/svg"
 width="500.000000pt" height="500.000000pt" viewBox="0 0 500.000000 500.000000"
 preserveAspectRatio="xMidYMid meet">

<g transform="translate(0.000000,500.000000) scale(0.100000,-0.100000)"
fill="#000000" stroke="none">
<path d="M2244 4235 c-142 -100 -144 -102 -129 -115 8 -7 15 -8 15 -3 0 18
159 123 186 123 18 0 20 -130 2 -148 -9 -9 -9 -12 1 -12 10 0 12 -10 7 -40 -6
-40 2 -51 22 -27 7 8 7 18 2 27 -11 17 -13 117 -4 173 6 32 8 35 19 21 11 -15
12 -15 10 4 -2 30 -10 35 -33 21 -16 -10 -24 -10 -34 -1 -11 9 -25 4 -64 -23z"/>
<path d="M2396 4237 c-3 -13 11 -34 45 -69 27 -27 50 -54 52 -59 1 -5 -16 -18
-38 -29 -39 -18 -39 -19 -7 -13 20 4 32 1 32 -6 0 -7 9 -9 25 -5 16 4 34 0 50
-10 13 -9 31 -16 38 -16 22 0 51 -36 36 -45 -15 -10 -132 -10 -148 -1 -7 5
-10 2 -9 -6 2 -7 -5 -12 -14 -12 -10 1 -18 -4 -18 -12 0 -8 -9 -14 -21 -14
-11 0 -17 -4 -14 -10 3 -5 1 -10 -4 -10 -6 0 -11 5 -11 11 0 6 -8 8 -17 5 -10
-3 -24 -2 -31 3 -16 10 40 60 98 88 19 9 30 18 24 20 -16 5 -64 -15 -64 -27 0
-5 -8 -10 -18 -10 -10 0 -26 -6 -37 -14 -29 -19 -82 -29 -90 -17 -3 6 0 13 7
16 8 3 15 17 16 31 1 18 -2 23 -11 17 -6 -4 -21 -8 -33 -8 -16 -1 -20 4 -16
17 4 18 5 18 18 1 12 -16 15 -16 24 -3 12 19 13 40 0 40 -22 0 -56 -23 -65
-43 -16 -35 -44 -34 -57 3 -8 24 -13 28 -19 18 -5 -7 -6 -25 -3 -39 4 -22 1
-28 -20 -33 -29 -7 -32 -17 -14 -49 21 -39 27 -95 11 -101 -27 -11 -45 -6 -40
8 3 8 -1 20 -9 27 -10 8 -11 14 -4 19 8 5 8 14 -1 32 -10 23 -17 26 -64 25
-30 -1 -52 -5 -49 -9 3 -4 -2 -8 -10 -8 -12 0 -15 9 -12 40 3 27 0 40 -7 39
-28 -3 -58 16 -78 47 -16 27 -23 31 -33 21 -11 -9 -8 -15 16 -30 23 -14 27
-21 19 -31 -9 -11 -6 -15 16 -21 35 -8 53 -23 53 -43 0 -9 15 -29 33 -45 32
-28 31 -28 -35 7 -64 33 -89 39 -51 11 15 -11 15 -15 4 -29 -8 -9 -11 -20 -7
-24 4 -4 13 1 21 11 7 10 19 15 29 11 16 -6 23 -34 8 -34 -5 0 -9 -7 -9 -15 0
-9 10 -15 24 -15 13 0 22 -4 19 -9 -4 -5 -17 -8 -31 -6 -14 1 -25 -2 -25 -6 0
-5 -5 -9 -11 -9 -6 0 -8 7 -4 18 5 13 3 14 -6 5 -19 -19 1 -35 37 -31 19 2 34
1 34 -2 0 -12 -60 -50 -79 -50 -11 0 -23 -4 -26 -10 -9 -15 -50 -12 -90 7 -39
19 -42 25 -20 43 20 17 19 32 -2 28 -14 -2 -19 5 -21 39 -2 23 -10 47 -18 53
-12 11 -13 4 -9 -50 3 -41 1 -68 -7 -77 -18 -22 -84 -53 -112 -53 -42 0 -36
-15 7 -17 29 -2 47 3 61 16 25 24 76 35 76 18 0 -7 -14 -28 -30 -46 -25 -27
-36 -32 -58 -27 -53 13 -57 12 -54 -10 3 -26 -14 -41 -52 -46 -21 -2 -30 -9
-31 -23 -1 -11 -6 -29 -12 -40 -10 -17 -13 -10 -19 43 -3 34 -10 62 -14 62
-11 0 -17 -116 -8 -141 11 -28 -20 -38 -39 -13 -7 10 -34 41 -59 67 -41 43
-45 53 -40 81 5 24 2 37 -10 47 -19 16 -48 1 -51 -27 -2 -14 0 -13 7 4 12 27
43 26 48 -1 3 -12 -4 -20 -17 -24 -12 -3 -21 -6 -21 -8 0 -1 5 -16 11 -33 6
-19 16 -29 24 -26 13 6 65 -54 65 -75 0 -7 -12 -23 -27 -36 -16 -13 -23 -25
-17 -25 6 0 19 9 29 20 19 21 45 27 45 9 0 -5 17 -25 37 -44 30 -27 35 -37 25
-47 -9 -9 -22 -10 -52 -1 -33 8 -40 8 -40 -4 0 -7 8 -17 18 -20 9 -4 20 -11
24 -17 5 -7 8 -4 8 7 0 9 4 17 10 17 5 0 7 -7 3 -16 -4 -12 -2 -15 8 -12 8 3
13 12 11 19 -3 11 -1 11 9 2 17 -17 -6 -44 -29 -36 -13 5 -15 4 -7 -8 9 -12
10 -42 5 -129 0 -8 -4 -21 -9 -29 -8 -12 -13 -12 -24 -3 -18 15 -44 6 -50 -18
-3 -12 3 -21 17 -28 20 -9 22 -16 18 -73 -2 -35 -10 -75 -17 -89 -7 -14 -16
-44 -20 -68 -4 -26 -12 -41 -18 -39 -17 5 -16 266 1 283 17 18 15 41 -6 56
-10 7 -27 27 -38 43 -22 35 -44 54 -61 55 -22 0 -14 -16 27 -58 45 -44 48 -52
22 -52 -16 0 -18 -14 -18 -186 0 -145 -2 -187 -13 -193 -19 -12 -141 -11 -164
1 -24 12 -53 -12 -44 -36 5 -13 19 -15 83 -10 l76 6 -6 -29 c-27 -137 -15
-175 45 -154 60 21 171 10 147 -15 -7 -6 -50 -6 -78 0 -14 4 -19 4 -12 0 18
-8 15 -27 -4 -20 -9 3 -12 2 -8 -5 4 -6 30 -9 64 -7 32 1 61 0 64 -3 10 -10
-151 -159 -172 -159 -15 0 -19 -5 -15 -20 6 -22 -24 -41 -36 -22 -3 5 -6 -68
-6 -164 0 -171 0 -174 21 -174 35 0 49 25 30 52 -12 17 -16 49 -16 140 0 65 4
118 9 118 5 0 38 -29 75 -65 l66 -65 0 -94 c0 -72 -4 -96 -16 -106 -30 -26
-37 -51 -17 -66 10 -7 26 -14 36 -14 9 0 17 -4 17 -9 0 -5 9 -13 21 -16 12 -4
39 -23 60 -42 32 -29 38 -40 33 -60 -6 -24 -5 -25 24 -18 26 5 39 0 81 -31 28
-21 51 -44 51 -51 0 -7 -25 -20 -56 -29 -30 -9 -58 -23 -61 -31 -6 -16 7 -45
23 -50 17 -5 35 13 28 30 -7 19 -30 23 -37 7 -3 -6 -4 -5 -3 2 1 7 14 13 28
14 20 1 25 -3 20 -15 -3 -9 16 2 44 25 37 31 58 41 86 41 26 1 49 10 75 32 50
41 75 42 54 2 -13 -23 -17 -160 -5 -163 5 -2 9 8 10 22 1 14 4 55 8 92 6 55
11 68 27 73 27 9 59 -21 59 -55 0 -15 -7 -47 -15 -71 -20 -56 -14 -71 27 -67
31 3 33 6 34 40 1 22 -3 36 -10 35 -6 -1 -12 8 -14 21 -3 21 -1 22 17 13 11
-7 25 -20 31 -31 9 -18 17 -19 64 -14 46 6 56 4 75 -15 11 -11 18 -27 15 -36
-4 -9 -1 -15 7 -15 11 0 11 -3 -1 -10 -11 -7 -12 -10 -2 -10 8 0 16 9 19 19 6
23 18 29 53 26 18 -1 26 -9 33 -35 5 -18 20 -48 34 -67 33 -42 67 -43 118 -3
45 36 49 36 110 10 57 -25 65 -25 65 -2 0 23 51 53 98 57 55 4 95 16 115 33
19 16 24 3 6 -15 -18 -18 -4 -42 21 -36 25 7 49 45 31 51 -22 7 -11 32 15 32
17 0 23 -4 19 -12 -4 -7 0 -5 8 4 10 13 23 16 51 11 53 -8 178 16 194 39 9 13
20 16 38 12 28 -7 33 10 7 25 -14 8 -15 12 -4 25 15 18 66 22 76 6 11 -18 27
-10 22 11 -8 30 17 34 57 10 53 -33 136 -13 105 26 -6 6 -9 24 -7 40 2 20 9
28 23 28 15 0 21 8 23 33 4 39 17 40 62 4 45 -37 75 -48 66 -26 -3 8 -6 20 -6
25 0 5 -7 9 -16 9 -13 0 -46 19 -83 46 -2 2 -7 22 -11 44 -6 35 -4 46 16 70
13 15 24 32 24 38 0 5 7 12 15 16 9 3 15 18 15 36 0 23 6 33 25 42 14 6 27 9
30 6 5 -5 10 -96 7 -145 -2 -31 -3 -31 -34 -22 -47 13 -48 13 -48 -25 0 -37
12 -52 33 -39 6 4 20 6 31 4 11 -1 16 2 12 8 -4 6 -3 11 3 11 5 0 12 13 16 30
7 31 20 39 28 18 6 -14 10 36 12 127 0 33 2 65 4 70 9 27 0 105 -12 105 -17 0
-60 77 -54 95 4 8 14 11 28 8 18 -5 21 -3 16 11 -4 11 -3 16 4 14 6 -2 10 -8
9 -13 -1 -5 8 -12 19 -17 12 -4 21 -16 21 -27 0 -28 8 -30 70 -22 l55 7 -52 8
c-43 6 -53 12 -53 27 0 10 -3 19 -7 19 -5 1 -27 18 -51 40 -34 30 -42 44 -37
60 4 14 15 20 36 20 16 0 29 5 29 11 0 5 4 8 9 4 19 -11 20 13 2 29 -18 16
-19 16 -23 1 -1 -9 -17 -23 -34 -30 -29 -12 -31 -12 -27 6 3 10 11 23 18 29 7
6 11 20 8 30 -3 11 -2 27 1 36 5 12 18 3 57 -41 29 -30 53 -54 56 -52 9 9 -10
35 -34 46 -14 6 -23 15 -19 18 3 3 1 12 -6 20 -13 16 -11 18 23 26 20 5 31 1
49 -18 26 -28 40 -32 40 -11 0 7 -9 16 -21 19 -12 3 -18 10 -14 16 3 6 1 11
-4 11 -6 0 -11 7 -11 15 0 8 -4 15 -10 15 -5 0 -7 -7 -4 -15 5 -12 -2 -15 -35
-13 -24 1 -41 6 -41 13 0 7 -12 25 -26 40 -15 17 -24 35 -21 46 3 11 1 22 -4
25 -16 9 -10 43 9 53 10 5 24 6 32 1 7 -4 24 -4 37 1 19 7 24 5 29 -17 4 -14
9 -23 12 -20 3 3 10 2 16 -3 6 -5 20 -5 31 0 19 7 19 8 -2 8 -16 1 -23 7 -23
21 0 11 5 20 10 20 7 0 7 6 1 19 -6 10 -7 22 -3 27 4 5 -3 0 -15 -10 -27 -22
-31 -35 -5 -15 15 13 16 12 3 -3 -9 -12 -18 -15 -30 -9 -15 9 -20 10 -38 12
-5 0 3 5 17 11 l25 10 -25 10 c-51 22 -81 18 -60 -7 13 -16 5 -35 -13 -34 -9
0 -9 2 1 6 19 7 14 17 -17 36 -22 13 -30 14 -34 5 -3 -10 -7 -10 -20 1 -19 15
-20 20 -8 40 8 12 12 12 25 2 12 -10 15 -9 13 8 0 11 -4 18 -8 15 -4 -2 -13 4
-20 13 -8 10 -9 14 -2 10 7 -4 13 0 16 10 4 17 5 17 6 1 1 -11 7 -15 15 -12
10 4 16 -3 18 -23 l4 -28 11 26 c13 30 51 61 65 53 4 -3 8 0 8 5 0 18 28 12
35 -6 3 -10 20 -29 38 -43 29 -23 28 -21 -11 28 -23 30 -42 62 -42 72 0 22
-51 67 -102 90 -29 13 -35 19 -26 28 9 9 8 12 -5 12 -9 0 -17 5 -17 10 0 6 5
10 12 10 6 0 4 8 -6 19 -15 17 -15 20 -1 34 8 9 15 23 15 32 0 13 -4 14 -22 4
-17 -9 -23 -9 -26 0 -2 6 -7 9 -10 7 -4 -2 -7 7 -7 20 0 13 3 24 7 24 4 0 5 8
2 18 -5 13 -4 14 4 3 6 -8 16 -11 24 -8 10 3 14 -2 14 -17 -1 -12 4 -20 11
-19 7 2 12 0 12 -5 -3 -16 2 -38 11 -52 7 -12 12 -11 31 5 12 11 19 14 15 8
-4 -7 -2 -13 3 -13 6 0 11 7 11 16 0 11 6 15 20 11 13 -3 20 0 20 9 0 8 6 14
13 12 11 -3 57 35 57 47 0 14 -29 2 -35 -13 -5 -17 -79 -51 -98 -44 -4 1 -10
-5 -13 -13 -8 -20 -24 -9 -24 17 0 13 5 18 14 15 11 -4 13 -1 9 10 -4 9 -2 14
3 11 5 -2 20 6 33 19 20 19 21 23 7 23 -12 0 -15 7 -12 23 5 32 -9 64 -36 78
l-23 12 23 -25 c12 -13 19 -27 16 -31 -4 -4 -1 -13 6 -22 16 -19 13 -19 -41 1
-64 23 -88 24 -82 5 3 -9 -7 3 -22 27 -21 34 -32 42 -55 42 -19 0 -33 7 -40
20 -8 14 -8 20 1 20 6 0 19 10 30 23 10 12 18 16 19 10 0 -7 -4 -13 -10 -13
-5 0 -10 -4 -10 -9 0 -8 42 -25 65 -25 6 0 27 -6 48 -13 21 -7 35 -8 32 -3 -3
6 -13 10 -21 10 -8 0 -14 5 -14 11 0 6 -7 9 -15 5 -8 -3 -21 4 -30 17 -9 13
-15 16 -15 8 0 -8 -3 -12 -6 -9 -3 4 -1 16 5 27 9 17 9 20 -3 15 -21 -8 -14
23 10 41 11 8 14 15 7 15 -7 0 -13 5 -13 11 0 6 9 9 19 6 13 -3 30 7 53 30
l33 35 -55 -30 c-30 -17 -70 -33 -87 -37 -28 -6 -33 -4 -33 12 0 11 -11 30
-25 43 -14 13 -25 29 -25 37 0 18 -19 16 -61 -5 -25 -13 -36 -14 -36 -6 0 7
13 15 29 18 25 5 28 8 18 26 -11 21 -30 27 -30 10 0 -5 -7 -10 -15 -10 -8 0
-15 5 -15 10 0 6 4 10 9 10 5 0 30 20 56 45 25 25 51 43 56 40 5 -4 6 -11 3
-17 -4 -7 -2 -8 5 -4 6 4 9 12 5 17 -3 6 4 8 18 6 12 -2 18 -2 11 0 -7 2 -9
12 -6 21 6 16 6 16 -10 0 -10 -9 -24 -14 -33 -11 -9 3 -21 -3 -30 -16 -9 -12
-19 -19 -24 -16 -4 3 -19 -8 -33 -24 -14 -17 -28 -27 -32 -23 -5 4 -5 2 -2 -4
4 -7 0 -15 -9 -18 -8 -3 -12 -10 -9 -16 4 -6 -1 -7 -10 -3 -12 4 -13 8 -5 13
9 5 9 9 1 14 -6 4 -11 4 -11 -1 0 -10 -20 19 -20 30 0 4 16 15 35 23 22 9 35
21 34 32 -1 15 -2 15 -6 -1 -3 -11 -11 -16 -19 -13 -8 3 -14 1 -14 -4 0 -6 -7
-10 -15 -10 -9 0 -27 -7 -40 -16 -13 -8 -37 -17 -54 -18 -36 -3 -50 -13 -28
-22 13 -5 13 -8 -4 -25 -16 -16 -23 -18 -35 -9 -7 7 -11 16 -8 21 3 5 2 9 -3
9 -4 0 -19 9 -32 19 -23 18 -23 18 -3 23 13 4 29 -2 41 -14 12 -10 21 -14 21
-9 0 5 -5 13 -10 16 -6 4 -7 11 -4 17 4 6 2 8 -4 4 -5 -3 -12 0 -15 6 -4 10
-7 11 -18 1 -18 -17 -34 -17 -20 0 13 17 4 28 -16 20 -8 -3 -18 -2 -22 3 -12
17 -73 44 -84 37 -8 -5 -8 -2 0 9 11 12 9 17 -13 26 -34 16 -53 14 -31 -2 10
-8 14 -16 9 -17 -5 -2 -15 -17 -23 -33 -17 -37 -45 -49 -36 -17 4 17 0 24 -19
31 -13 5 -24 14 -24 19 0 6 -7 8 -15 5 -22 -9 -18 9 5 24 23 14 27 39 5 39 -8
0 -15 -6 -15 -14 0 -21 -23 -15 -54 14 -16 15 -37 28 -45 29 -9 1 -30 7 -48
12 -17 6 -34 8 -37 5 -3 -3 -3 5 -1 18 3 17 -7 36 -35 68 -22 25 -40 50 -40
56 0 14 196 21 213 7 7 -5 19 -9 28 -9 20 0 20 38 0 45 -10 3 -12 -1 -8 -17 3
-11 1 -21 -4 -21 -5 0 -9 9 -9 19 0 17 -4 18 -32 11 -18 -5 -77 -6 -130 -2
-90 7 -97 6 -102 -11z m-172 -236 c4 -5 -3 -7 -14 -4 -23 6 -26 13 -6 13 8 0
17 -4 20 -9z m-55 -27 c12 -15 21 -33 21 -40 0 -8 6 -14 14 -14 20 0 26 -23
11 -43 -11 -15 -15 -13 -40 22 -17 26 -25 46 -20 60 4 13 0 23 -12 30 -10 6
-13 11 -6 11 6 0 21 -12 32 -26z m426 -34 c-3 -5 -11 -10 -16 -10 -6 0 -7 5
-4 10 3 6 11 10 16 10 6 0 7 -4 4 -10z m-118 -6 c-3 -3 -12 -4 -19 -1 -8 3 -5
6 6 6 11 1 17 -2 13 -5z m-98 -44 c10 0 23 -6 29 -13 8 -10 5 -16 -11 -26 -12
-8 -19 -10 -14 -6 10 11 -32 55 -52 55 -14 0 -14 2 -1 10 10 6 17 5 23 -5 4
-8 16 -15 26 -15z m517 -15 c18 -12 25 -11 45 2 23 15 23 15 7 -2 -15 -16 -15
-19 3 -38 24 -26 39 -79 31 -109 l-5 -22 -8 22 c-5 12 -16 22 -26 22 -10 0
-29 7 -43 15 -14 8 -44 24 -67 36 -46 23 -60 55 -20 45 12 -3 16 -3 10 0 -16
7 -17 26 -1 42 13 13 40 8 74 -13z m-557 1 c10 -12 8 -17 -11 -27 -20 -11 -21
-10 -11 3 10 11 10 17 1 26 -8 8 -8 12 -1 12 6 0 16 -6 22 -14z m285 6 c2 -4
-7 -9 -20 -10 -15 -1 -22 2 -19 8 7 12 32 13 39 2z m-684 -12 c0 -5 -4 -10
-10 -10 -5 0 -10 5 -10 10 0 6 5 10 10 10 6 0 10 -4 10 -10z m600 0 c12 -8 9
-10 -13 -10 -16 0 -26 4 -22 10 8 12 16 12 35 0z m145 0 c3 -5 -1 -10 -9 -10
-8 0 -18 5 -21 10 -3 6 1 10 9 10 8 0 18 -4 21 -10z m-45 -26 c0 -14 -3 -14
-15 -4 -8 7 -15 14 -15 16 0 2 7 4 15 4 8 0 15 -7 15 -16z m63 1 c-3 -9 -8
-14 -10 -11 -3 3 -2 9 2 15 9 16 15 13 8 -4z m69 -3 c-7 -2 -10 -8 -7 -12 3
-5 1 -11 -4 -15 -6 -3 -15 4 -21 16 -8 15 -9 19 -1 15 6 -4 11 -3 11 3 0 6 8
7 17 4 11 -4 13 -8 5 -11z m-47 -11 c3 -5 1 -12 -5 -16 -5 -3 -10 1 -10 9 0
18 6 21 15 7z m460 -11 c4 -12 0 -26 -9 -35 -13 -14 -18 -12 -42 10 l-27 25
24 9 c36 15 47 13 54 -9z m-656 -44 c-9 -8 -10 -8 -5 2 4 6 2 12 -4 12 -6 0
-8 5 -5 10 3 6 0 10 -7 10 -9 0 -9 3 2 10 19 12 37 -28 19 -44z m-211 -37 c10
-1 7 -4 -8 -8 -18 -5 -27 -3 -31 8 -9 23 2 37 13 17 5 -9 17 -16 26 -17z m566
11 c15 0 16 -3 6 -15 -16 -19 -37 -19 -56 -1 -20 21 -17 29 9 22 12 -3 30 -6
41 -6z m197 -17 c8 2 11 2 7 0 -21 -12 -3 -21 37 -19 47 1 58 -11 30 -34 -8
-7 -15 -19 -15 -26 0 -21 -17 -17 -23 6 -3 11 -14 20 -24 20 -24 0 -88 67 -70
73 7 2 19 -2 28 -10 9 -7 22 -12 30 -10z m275 -2 c6 -12 15 -21 20 -19 5 2 10
-7 12 -20 3 -20 0 -22 -22 -16 -43 10 -31 -19 16 -38 53 -23 43 -32 -28 -29
-47 2 -60 7 -79 29 -22 25 -22 27 -5 39 9 7 25 28 34 48 19 39 35 41 52 6z
m-1496 -33 c0 -12 -14 -10 -28 4 -19 19 -14 29 8 16 11 -7 20 -16 20 -20z
m1091 9 c-13 -13 -26 -3 -16 12 3 6 11 8 17 5 6 -4 6 -10 -1 -17z m-1043 -12
c-3 -3 -9 2 -12 12 -6 14 -5 15 5 6 7 -7 10 -15 7 -18z m62 19 c0 -1 -3 -10
-6 -18 -5 -13 -9 -14 -20 -5 -20 16 -17 25 6 25 11 0 20 -1 20 -2z m-160 -24
c0 -5 -4 -10 -9 -10 -6 0 -13 5 -16 10 -3 6 1 10 9 10 9 0 16 -4 16 -10z
m1195 -35 c0 -22 -40 -34 -58 -16 -7 7 -2 8 14 5 22 -5 22 -4 5 6 -15 10 -16
14 -5 21 22 14 44 6 44 -16z m70 -6 c21 -40 17 -43 -18 -13 -23 20 -25 24 -10
25 16 0 16 1 -2 9 -17 7 -17 9 -3 9 10 1 25 -13 33 -30z m-1201 -24 c16 -25
12 -35 -15 -35 -13 0 -16 5 -12 16 4 10 -4 24 -23 40 l-29 24 32 -11 c17 -6
38 -21 47 -34z m256 35 c0 -5 -7 -7 -15 -4 -8 4 -15 8 -15 10 0 2 7 4 15 4 8
0 15 -4 15 -10z m132 -22 c-2 -10 2 -18 8 -18 16 0 12 -17 -6 -24 -9 -4 -24
-1 -33 6 -13 11 -13 9 1 -8 16 -19 16 -20 -3 -21 -10 -1 -17 2 -14 7 3 5 0 12
-6 16 -8 4 -9 3 -5 -4 4 -7 3 -12 -3 -12 -5 0 -14 6 -18 13 -4 7 -19 18 -33
24 -25 11 -25 11 13 18 20 4 37 12 37 17 0 5 15 8 33 6 24 -2 31 -7 29 -20z
m191 -73 c47 -27 59 -39 24 -26 -15 6 -27 9 -27 6 0 -2 -11 6 -24 18 -14 14
-27 39 -30 62 l-6 40 13 -40 c9 -29 23 -45 50 -60z m342 85 c-3 -5 -14 -10
-23 -9 -14 0 -13 2 3 9 27 11 27 11 20 0z m672 -4 c-2 -6 -11 -12 -20 -14 -11
-2 -15 1 -12 11 7 16 37 19 32 3z m-884 -104 c9 -2 17 2 17 8 0 7 -6 10 -13 7
-9 -3 -12 5 -9 29 5 43 19 54 17 13 -1 -16 4 -33 11 -37 7 -4 12 -16 11 -26
-1 -10 4 -20 11 -22 7 -1 8 0 2 3 -21 10 -9 23 18 18 l27 -6 -27 23 c-16 13
-28 26 -28 28 0 3 18 5 40 5 34 0 38 -2 24 -12 -12 -9 -14 -16 -7 -25 6 -7 9
-26 6 -43 l-3 -30 18 24 c20 25 37 16 26 -13 -8 -21 52 -57 83 -50 17 5 23 2
24 -10 3 -29 4 -34 12 -42 4 -4 7 11 7 34 0 23 5 42 10 42 6 0 10 -15 10 -32
0 -28 19 -80 20 -54 0 5 7 2 16 -5 15 -12 16 -10 12 24 -2 24 0 37 8 37 7 0
11 -16 10 -42 -1 -50 14 -56 53 -20 13 12 28 22 34 22 5 0 -1 -8 -13 -18 l-23
-18 25 -25 c14 -14 31 -23 39 -21 10 3 9 0 -2 -9 -9 -8 -20 -27 -24 -44 -8
-29 -8 -29 -14 -6 -6 23 -7 23 -21 5 -9 -10 -10 -15 -2 -10 7 4 12 2 12 -4 0
-7 -9 -14 -20 -17 -11 -3 -20 -12 -20 -21 0 -12 3 -13 12 -4 7 7 16 12 20 12
12 0 10 -38 -2 -45 -5 -3 -10 -1 -10 6 0 8 -4 8 -15 -1 -10 -8 -15 -30 -15
-64 l1 -51 20 38 c11 20 24 37 29 37 6 0 10 15 10 33 1 32 49 136 50 107 0 -9
-7 -25 -15 -37 -8 -12 -17 -43 -20 -70 -4 -48 -4 -48 10 -18 8 17 14 36 15 43
0 14 70 122 70 109 0 -4 -11 -25 -25 -46 -32 -52 -44 -97 -22 -88 8 3 18 3 21
0 10 -10 -14 -32 -29 -27 -17 7 -60 -64 -57 -92 2 -12 -3 -24 -11 -27 -12 -4
-67 -90 -67 -103 0 -2 11 2 25 8 17 7 21 14 14 19 -6 4 -8 12 -5 18 10 16 26
14 26 -4 0 -8 6 -12 14 -9 8 3 12 13 9 25 -3 10 -1 19 5 19 6 0 12 -8 15 -17
2 -13 8 -9 22 18 13 28 27 39 57 49 22 6 47 14 57 16 9 3 3 -3 -14 -13 -16
-10 -31 -24 -32 -30 -4 -16 -3 -16 42 3 20 8 49 14 64 12 23 -3 26 1 29 30 4
38 6 38 32 12 24 -24 26 -30 8 -42 -10 -7 -8 -13 12 -26 46 -32 60 -51 59 -84
l-1 -33 -11 28 c-14 35 -29 34 -61 -4 -14 -17 -30 -28 -34 -25 -10 6 -77 -33
-69 -40 3 -3 12 -6 20 -8 8 -1 23 -8 32 -16 14 -12 18 -12 25 1 8 12 12 12 25
-2 13 -13 14 -18 2 -27 -10 -9 -26 -3 -70 23 -52 32 -62 34 -58 13 0 -5 -6 -8
-15 -8 -8 0 -12 -4 -9 -10 3 -5 0 -7 -8 -4 -8 3 -25 -5 -37 -18 -13 -13 -20
-17 -16 -10 4 6 2 12 -3 12 -6 0 -11 -21 -11 -48 0 -42 -4 -51 -25 -62 -14 -7
-25 -17 -25 -22 0 -5 5 -6 10 -3 14 9 12 -19 -2 -33 -15 -15 -28 -15 -28 -1 0
5 5 7 10 4 19 -11 10 6 -15 31 -14 14 -25 29 -25 34 0 20 5 25 20 22 12 -2 11
0 -2 11 -10 8 -15 17 -11 20 3 4 1 7 -6 7 -8 0 -7 5 3 16 14 14 14 17 1 30
-19 20 -19 30 0 14 11 -9 15 -9 15 -1 0 6 -7 14 -16 18 -10 4 -14 13 -10 29 5
19 1 23 -23 29 -27 6 -29 8 -21 37 5 16 14 36 20 43 7 9 8 15 1 19 -17 11 -44
-55 -46 -109 -1 -27 -7 -65 -13 -84 -7 -19 -9 -37 -7 -40 3 -2 5 1 5 7 0 7 5
12 11 12 6 0 2 -11 -9 -25 -14 -17 -18 -35 -15 -64 2 -23 -1 -49 -7 -58 -9
-15 -10 -12 -6 15 7 43 -16 54 -44 21 -17 -21 -21 -22 -30 -9 -5 8 -10 22 -9
30 0 9 6 5 14 -10 8 -14 14 -22 15 -17 0 17 4 23 19 34 9 6 19 9 22 7 4 -2 2
7 -4 20 -8 16 -16 21 -23 15 -6 -5 -14 -6 -17 -2 -4 3 -7 1 -7 -5 0 -7 5 -12
11 -12 5 0 8 -4 4 -10 -8 -13 -37 0 -32 14 9 23 -21 76 -43 76 -11 0 -20 5
-20 10 0 6 -6 10 -12 9 -20 -2 -58 12 -58 22 0 5 -6 9 -13 9 -8 0 -24 11 -38
26 -21 22 -21 24 -4 19 13 -4 12 -1 -5 8 -14 9 -29 13 -34 9 -5 -3 -7 2 -3 10
7 19 -31 32 -49 17 -18 -15 -21 -3 -23 81 -1 49 -6 79 -15 85 -11 8 -11 13 1
24 8 7 12 16 8 19 -3 4 -10 1 -14 -6 -4 -7 -12 -12 -17 -11 -24 4 -34 -3 -35
-23 -1 -17 -2 -19 -6 -5 -2 9 -9 17 -15 17 -6 0 -17 -8 -25 -17 -8 -10 -12
-13 -9 -7 3 6 -14 21 -37 34 -23 13 -52 31 -65 41 -20 16 -21 19 -6 27 12 7
15 17 9 40 -6 29 -34 50 -52 39 -5 -3 -14 1 -21 9 -7 8 -10 14 -6 14 3 0 1 6
-5 14 -9 11 -9 15 1 19 7 3 3 6 -9 6 -25 1 -29 -9 -12 -26 9 -9 7 -10 -9 -6
-12 3 -19 9 -16 14 3 5 -2 6 -10 3 -9 -3 -16 -2 -16 4 0 6 -2 16 -5 24 -6 16
54 55 64 41 3 -5 15 -9 26 -10 11 0 29 -4 40 -8 14 -5 11 1 -10 20 -16 14 -23
23 -15 19 8 -5 29 -7 47 -5 24 2 33 -2 33 -13 0 -8 8 -20 18 -25 9 -6 11 -11
5 -11 -7 0 -13 -6 -13 -14 0 -8 -5 -18 -12 -22 -7 -4 -8 -3 -4 5 4 7 5 18 3
25 -4 11 -14 11 -47 3 -32 -9 -37 -13 -23 -18 17 -7 17 -8 1 -8 -12 -1 -18 -9
-17 -23 0 -13 3 -17 6 -10 6 14 33 16 33 2 0 -5 7 -10 15 -10 9 0 18 -7 21
-15 8 -19 88 -22 82 -2 -3 6 -18 15 -34 18 -22 5 -24 7 -7 8 12 0 31 10 42 22
11 12 25 18 31 14 14 -9 90 14 90 27 0 8 -15 12 -37 9 -7 -1 -13 3 -13 9 0 5
7 10 15 10 8 0 15 4 15 9 0 13 -34 24 -38 12 -7 -21 -142 12 -142 35 0 10 -15
14 -57 15 -32 0 -67 4 -78 8 -12 5 8 7 50 5 70 -2 151 -27 124 -36 -8 -4 -2
-9 15 -13 19 -5 31 -4 33 2 2 6 10 19 18 29 13 18 13 18 12 -1 -1 -11 -6 -23
-12 -27 -5 -4 0 -8 13 -8 13 0 20 4 17 10 -8 13 1 13 27 -1 34 -18 31 -3 -4
20 -18 11 -28 21 -22 21 5 0 15 -5 22 -12 6 -6 15 -8 19 -4 4 4 -3 15 -16 25
-17 13 -22 24 -17 42 3 13 3 18 0 11 -3 -6 -11 -9 -16 -6 -7 4 -8 2 -4 -4 9
-15 -4 -15 -41 -2 l-28 10 24 -20 c12 -11 27 -17 32 -14 5 3 9 0 9 -6 0 -12
-38 -4 -55 11 -5 5 -15 9 -23 9 -11 0 -12 -3 -2 -14 10 -13 7 -13 -17 -4 -15
6 -36 22 -47 35 l-18 24 23 -13 c13 -7 27 -17 31 -23 5 -6 8 -6 8 2 0 7 -8 17
-17 22 -14 8 -11 9 15 5 30 -6 32 -5 33 22 l1 29 10 -27 c8 -25 30 -40 27 -20
-1 4 0 18 1 32 2 21 3 22 7 6 5 -19 6 -18 18 3 l12 24 6 -24 c5 -20 46 -49 74
-51 4 0 14 -9 21 -19 7 -11 19 -19 25 -19 7 0 6 4 -3 11 -11 8 -4 9 28 7 23
-2 42 -1 42 1 0 3 -9 14 -19 25 -16 17 -19 29 -13 66 l7 45 5 -50 c4 -37 9
-51 23 -53z m-559 72 c3 -8 2 -12 -4 -9 -6 3 -10 10 -10 16 0 14 7 11 14 -7z
m840 10 c24 -9 1 -33 -24 -27 -23 6 -26 19 -7 26 6 3 13 6 14 6 1 1 9 -2 17
-5z m184 -39 c-3 -3 -9 2 -12 12 -6 14 -5 15 5 6 7 -7 10 -15 7 -18z m-920
-29 c3 -15 -9 -21 -32 -17 -5 1 -6 -6 -2 -15 5 -13 2 -15 -14 -11 -20 5 -20 4
-3 -24 10 -17 28 -32 40 -35 12 -3 27 -12 34 -20 9 -11 6 -14 -19 -14 -17 0
-43 -5 -57 -12 -27 -12 -41 -6 -30 12 6 9 10 9 16 -1 5 -8 9 -9 9 -4 0 6 -4
16 -9 24 -7 11 -12 8 -25 -11 -15 -23 -19 -24 -56 -14 -22 5 -40 16 -40 22 0
7 -10 20 -22 28 l-22 16 24 1 c14 1 30 1 37 0 6 -1 14 3 17 8 4 6 -9 8 -30 5
-32 -4 -35 -3 -24 10 7 9 24 14 41 12 16 -2 26 1 23 5 -3 5 0 9 6 9 6 0 8 5 4
13 -6 8 -3 8 9 -1 17 -15 37 -9 37 11 0 7 -4 6 -10 -3 -6 -9 -10 -10 -10 -3 0
18 19 26 34 14 11 -9 12 -6 8 14 -4 25 -4 25 29 11 19 -8 35 -21 37 -30z m807
11 c-19 -10 -63 12 -45 23 6 4 22 2 35 -4 19 -9 21 -13 10 -19z m-415 13 c0
-5 -8 -10 -17 -10 -15 0 -16 2 -3 10 19 12 20 12 20 0z m840 3 c0 -5 -8 -17
-17 -28 -14 -18 -15 -18 -9 -2 3 10 6 23 6 28 0 5 5 9 10 9 6 0 10 -3 10 -7z
m-643 -29 c-3 -3 -12 -4 -19 -1 -8 3 -5 6 6 6 11 1 17 -2 13 -5z m-172 -24 c3
-5 2 -10 -4 -10 -5 0 -13 5 -16 10 -3 6 -2 10 4 10 5 0 13 -4 16 -10z m-1118
-77 c-2 -16 -4 -3 -4 27 0 30 2 43 4 28 2 -16 2 -40 0 -55z m703 73 c0 -3 -4
-8 -10 -11 -5 -3 -10 -1 -10 4 0 6 5 11 10 11 6 0 10 -2 10 -4z m655 -6 c-3
-5 -14 -10 -23 -10 -15 0 -15 2 -2 10 20 13 33 13 25 0z m295 -5 c25 -14 24
-14 -17 -15 -23 0 -49 3 -59 7 -16 6 -16 7 2 14 28 11 46 10 74 -6z m60 5 c8
-5 12 -11 10 -14 -3 -2 -14 2 -24 10 -22 15 -10 19 14 4z m-937 -7 c-7 -2 -19
-2 -25 0 -7 3 -2 5 12 5 14 0 19 -2 13 -5z m1060 -8 c19 -8 37 -21 40 -30 8
-19 -13 -20 -39 0 -10 8 -31 15 -46 15 -31 0 -38 16 -10 23 9 3 18 5 18 6 1 0
17 -6 37 -14z m-1443 -20 c0 -8 -7 -11 -20 -8 -23 6 -26 19 -7 26 16 6 27 -1
27 -18z m1002 -5 c-18 -11 -42 -20 -55 -19 -17 0 -13 5 18 19 54 25 78 25 37
0z m-595 4 c-3 -3 -12 -4 -19 -1 -8 3 -5 6 6 6 11 1 17 -2 13 -5z m890 -9 c0
-8 -4 -12 -9 -9 -4 3 -8 9 -8 15 0 5 4 9 8 9 5 0 9 -7 9 -15z m324 -2 c13 -17
13 -17 -6 -3 -11 8 -22 16 -24 17 -2 2 0 3 6 3 6 0 17 -8 24 -17z m-186 -3 c3
-5 4 -10 1 -10 -2 0 -12 -3 -20 -6 -12 -5 -15 -2 -10 10 7 18 20 21 29 6z
m-1468 -22 c-3 -8 -6 -5 -6 6 -1 11 2 17 5 13 3 -3 4 -12 1 -19z m558 4 c-3
-3 -11 0 -18 7 -9 10 -8 11 6 5 10 -3 15 -9 12 -12z m1053 0 c9 -7 10 -15 3
-35 -7 -18 -7 -27 0 -27 5 0 4 -6 -3 -14 -11 -12 -20 -8 -55 23 -22 20 -42 39
-42 43 -1 4 14 9 32 11 17 2 37 4 42 5 6 1 16 -2 23 -6z m-1157 -35 c-6 -6
-21 -5 -38 1 -28 11 -28 11 9 9 23 0 34 -5 29 -10z m1380 -7 c24 -14 26 -42 2
-33 -18 7 -33 22 -33 36 0 10 8 9 31 -3z m-1687 -15 c-5 -11 -11 -12 -25 -4
-26 13 -24 19 6 19 17 0 23 -4 19 -15z m1331 -4 c10 -18 -17 -23 -33 -7 -15
15 -15 16 5 16 12 0 24 -4 28 -9z m-1365 -17 c0 -8 -4 -12 -10 -9 -5 3 -10 2
-10 -3 0 -5 -7 -9 -14 -9 -11 0 -13 5 -5 19 12 22 39 24 39 2z m81 -7 c-10 -9
-11 -8 -5 6 3 10 9 15 12 12 3 -3 0 -11 -7 -18z m-26 -7 c-3 -5 -11 -10 -16
-10 -6 0 -7 5 -4 10 3 6 11 10 16 10 6 0 7 -4 4 -10z m1360 0 c3 -6 -1 -7 -9
-4 -18 7 -21 14 -7 14 6 0 13 -4 16 -10z m-256 -20 c-15 -10 -41 -1 -34 10 3
5 14 6 26 3 15 -4 17 -8 8 -13z m-1147 2 c-7 -5 -10 -16 -6 -25 3 -9 11 -14
17 -10 6 4 7 1 2 -7 -6 -10 -12 -8 -27 9 -20 25 -16 41 10 41 13 0 14 -2 4 -8z
m158 -16 c0 -16 -7 -27 -20 -31 -11 -4 -18 -10 -15 -15 3 -4 -12 -4 -32 1 -26
5 -40 4 -45 -4 -5 -8 -8 -8 -8 -1 0 16 29 40 70 57 48 21 50 20 50 -7z m183 7
c-7 -2 -19 -2 -25 0 -7 3 -2 5 12 5 14 0 19 -2 13 -5z m-3 -27 c0 -3 -4 -8
-10 -11 -5 -3 -10 -1 -10 4 0 6 5 11 10 11 6 0 10 -2 10 -4z m922 -28 c-7 -7
-12 -8 -12 -2 0 6 3 14 7 17 3 4 9 5 12 2 2 -3 -1 -11 -7 -17z m63 -8 c-3 -5
-11 -10 -16 -10 -6 0 -7 5 -4 10 3 6 11 10 16 10 6 0 7 -4 4 -10z m-95 -20 c0
-5 -5 -10 -11 -10 -5 0 -7 5 -4 10 3 6 8 10 11 10 2 0 4 -4 4 -10z m30 -39
c-28 -16 -60 -22 -60 -12 0 8 18 14 65 19 6 1 3 -2 -5 -7z m-20 -68 c-35 -23
-89 -82 -106 -115 -27 -51 -24 -29 3 26 14 30 37 59 50 65 13 6 23 15 23 20 0
5 8 12 18 14 33 9 36 7 12 -10z m464 -10 c16 -8 39 -26 52 -40 25 -27 31 -38
14 -28 -5 3 -10 -1 -10 -9 0 -21 -8 -20 -52 3 -19 11 -39 17 -42 14 -3 -3 -9
8 -12 26 -6 29 -8 30 -20 14 -13 -18 -15 -17 -19 23 -2 19 2 21 29 17 17 -3
44 -12 60 -20z m-2397 -5 c-3 -8 -6 -5 -6 6 -1 11 2 17 5 13 3 -3 4 -12 1 -19z
m613 -60 c0 -38 -5 -34 -13 10 -4 21 -3 31 3 27 6 -3 10 -20 10 -37z m27 -20
c-2 -13 -4 -5 -4 17 -1 22 1 32 4 23 2 -10 2 -28 0 -40z m88 22 c-3 -5 -11
-10 -16 -10 -6 0 -7 5 -4 10 3 6 11 10 16 10 6 0 7 -4 4 -10z m1175 6 c0 -3
-4 -8 -10 -11 -5 -3 -10 -1 -10 4 0 6 5 11 10 11 6 0 10 -2 10 -4z m-1889 -20
c5 3 9 -28 9 -72 0 -98 -17 -87 -22 15 -2 40 -2 68 0 62 2 -6 8 -9 13 -5z
m566 -18 c-3 -8 -6 -5 -6 6 -1 11 2 17 5 13 3 -3 4 -12 1 -19z m-422 2 c3 -5
1 -10 -4 -10 -6 0 -11 5 -11 10 0 6 2 10 4 10 3 0 8 -4 11 -10z m2258 -36 c-8
-22 -18 -17 -18 10 0 18 3 22 12 14 6 -5 9 -16 6 -24z m-1703 -114 c0 -68 4
-91 20 -115 18 -28 20 -28 20 -7 0 12 -4 22 -10 22 -5 0 -10 19 -10 43 0 31 5
45 19 54 11 7 21 25 24 40 4 28 4 28 6 2 0 -15 -8 -34 -19 -44 -21 -19 -28
-79 -10 -90 7 -4 8 -34 4 -82 -8 -82 -6 -84 43 -40 12 11 29 17 37 14 10 -4
29 5 49 23 23 20 40 27 55 23 12 -3 22 -10 22 -15 0 -5 -7 -5 -17 0 -13 8 -26
2 -54 -20 -22 -18 -44 -28 -53 -25 -9 4 -23 -4 -36 -20 -11 -14 -20 -22 -20
-18 0 4 -7 2 -15 -5 -19 -16 -21 -140 -3 -158 9 -9 9 -12 0 -12 -7 0 -12 -15
-12 -36 0 -21 4 -33 10 -29 6 4 10 -6 10 -22 0 -16 5 -34 12 -41 9 -9 9 -12 0
-12 -6 0 -16 15 -21 33 -5 17 -10 24 -10 14 -1 -10 5 -32 12 -50 9 -21 11 -49
7 -82 l-6 -50 -5 42 c-2 24 -1 44 4 46 13 4 -14 57 -29 57 -16 0 -37 -37 -29
-49 6 -11 -22 -41 -38 -41 -7 0 -4 7 6 14 9 7 17 20 17 29 0 8 11 29 25 45 15
18 25 41 24 58 -1 21 -3 24 -6 9 -6 -24 -32 -55 -46 -55 -6 0 -2 9 7 19 24 26
17 54 -16 65 -22 8 -32 6 -50 -10 l-23 -19 19 23 c20 23 60 30 71 12 8 -12 25
-13 25 -1 0 5 -16 18 -35 30 -29 17 -39 19 -60 9 -20 -9 -28 -9 -38 2 -9 10
-9 11 1 6 11 -6 64 7 81 20 8 7 -22 34 -39 34 -9 0 -17 6 -17 14 0 11 9 8 36
-9 20 -12 36 -30 36 -40 0 -10 6 -20 13 -23 9 -3 12 13 11 60 -1 35 -4 54 -7
43 -6 -18 -10 -14 -30 25 -19 38 -20 41 -3 20 11 -14 26 -25 33 -25 9 0 15
-24 20 -74 4 -41 10 -76 13 -79 3 -3 5 62 4 145 0 130 -3 154 -20 181 -12 21
-19 51 -19 81 0 30 -10 70 -25 105 -28 64 -26 75 4 19 11 -21 20 -31 20 -23 0
8 -6 26 -14 40 -22 38 -18 49 5 15 16 -24 20 -47 20 -115z m67 103 c-3 -10 -5
-4 -5 12 0 17 2 24 5 18 2 -7 2 -21 0 -30z m1510 15 c-3 -8 -6 -5 -6 6 -1 11
2 17 5 13 3 -3 4 -12 1 -19z m-157 -8 c0 -5 -5 -10 -11 -10 -5 0 -7 5 -4 10 3
6 8 10 11 10 2 0 4 -4 4 -10z m156 -25 c-3 -8 -1 -15 3 -15 5 0 12 6 14 13 3
6 6 -1 6 -16 1 -25 -2 -28 -21 -21 -31 9 -33 11 -20 27 7 8 9 17 5 20 -3 4 -1
7 6 7 8 0 11 -7 7 -15z m-1536 -35 c0 -16 -4 -30 -10 -30 -5 0 -10 14 -10 30
0 17 5 30 10 30 6 0 10 -13 10 -30z m110 26 c0 -3 -4 -8 -10 -11 -5 -3 -10 -1
-10 4 0 6 5 11 10 11 6 0 10 -2 10 -4z m-193 -78 c-2 -13 -4 -5 -4 17 -1 22 1
32 4 23 2 -10 2 -28 0 -40z m170 30 c-3 -8 -6 -5 -6 6 -1 11 2 17 5 13 3 -3 4
-12 1 -19z m373 -4 c0 -2 -7 -4 -15 -4 -8 0 -15 4 -15 10 0 5 7 7 15 4 8 -4
15 -8 15 -10z m113 -16 c22 -23 6 -23 -23 0 -15 12 -18 19 -9 18 8 0 22 -8 32
-18z m-1294 -70 c0 -10 -3 -18 -9 -18 -5 0 -9 21 -9 48 1 42 2 44 9 17 4 -16
8 -38 9 -47z m2223 30 c-6 -6 -15 -8 -19 -4 -4 4 -1 11 7 16 19 12 27 3 12
-12z m61 10 c25 -13 46 -38 46 -53 0 -5 -5 -3 -12 6 -7 9 -27 23 -44 33 -18 9
-33 19 -33 21 0 9 21 5 43 -7z m-933 -83 c0 -7 -4 -17 -10 -20 -5 -3 -7 0 -4
9 3 8 -3 19 -15 26 -18 9 -21 8 -21 -10 0 -25 -4 -25 -40 1 -18 14 -26 27 -22
37 4 11 2 13 -9 7 -8 -4 -11 -5 -7 0 4 4 2 15 -4 23 -7 8 20 -2 60 -22 39 -20
72 -43 72 -51z m-554 9 c-9 -8 -16 -24 -16 -33 0 -10 -7 -24 -15 -31 -9 -8
-15 -9 -15 -2 0 6 5 14 10 17 6 3 10 24 10 45 0 39 18 58 33 33 5 -8 2 -19 -7
-29z m-166 26 c0 -5 -2 -10 -4 -10 -3 0 -8 5 -11 10 -3 6 -1 10 4 10 6 0 11
-4 11 -10z m-31 -36 c12 -19 21 -43 20 -52 -1 -13 -2 -13 -8 3 -3 11 -14 35
-24 53 -24 43 -14 41 12 -4z m1651 23 c0 -4 0 -11 0 -17 0 -18 -29 -10 -40 10
-10 19 -9 20 15 17 14 -2 25 -6 25 -10z m-1385 -24 c-11 -10 -26 -24 -32 -32
-11 -13 -13 -13 -13 0 0 8 12 22 28 31 35 22 41 22 17 1z m-205 -42 c0 -32 -6
-24 -14 19 -4 25 -3 31 4 20 5 -8 10 -26 10 -39z m1627 43 c-3 -3 -12 -4 -19
-1 -8 3 -5 6 6 6 11 1 17 -2 13 -5z m-2320 -54 c3 -11 20 -24 39 -30 22 -8 34
-18 34 -30 0 -9 7 -23 15 -30 8 -7 15 -19 15 -26 0 -21 -119 -7 -145 17 -17
16 -18 23 -8 49 7 17 7 32 2 36 -5 3 -9 12 -9 20 0 23 51 18 57 -6z m1411 -83
l-2 -82 -3 75 c-6 128 -23 106 -23 -30 0 -99 3 -127 16 -141 9 -10 23 -15 32
-13 14 5 13 3 -1 -6 -13 -9 -22 -9 -32 0 -10 9 -14 7 -18 -7 -3 -10 -5 32 -6
93 -1 71 -5 114 -13 122 -9 9 -9 12 0 12 7 0 12 7 12 16 0 13 -6 10 -25 -10
-14 -15 -25 -23 -25 -17 0 5 -3 18 -6 28 -5 15 -4 15 5 3 8 -11 11 -12 11 -2
0 7 6 10 13 7 6 -4 4 0 -7 9 -18 15 -14 36 7 36 8 0 8 -3 -1 -9 -11 -7 -10
-10 3 -15 24 -9 28 -8 22 8 -8 20 3 27 24 15 17 -8 19 -21 17 -92z m39 71 c-3
-7 -5 -2 -5 12 0 14 2 19 5 13 2 -7 2 -19 0 -25z m-146 5 c13 -16 12 -17 -3
-4 -17 13 -22 21 -14 21 2 0 10 -8 17 -17z m1089 -20 c19 -22 28 -39 21 -41
-6 -2 -11 -13 -12 -25 0 -12 -3 -16 -6 -9 -2 6 -11 12 -19 12 -8 0 -14 -6 -15
-12 0 -10 -2 -10 -6 0 -6 14 -33 16 -33 2 0 -15 -27 -12 -33 4 -9 24 5 60 32
83 14 12 29 22 32 23 4 0 22 -17 39 -37z m-507 -24 c-15 -28 -37 -55 -48 -61
-17 -10 -18 -9 -8 3 16 20 17 30 1 41 -10 7 -10 9 2 7 31 -3 40 2 55 31 9 17
18 30 21 30 3 0 -7 -23 -23 -51z m-1943 31 c0 -5 -4 -10 -10 -10 -5 0 -10 5
-10 10 0 6 5 10 10 10 6 0 10 -4 10 -10z m2030 0 c0 -5 -5 -10 -11 -10 -5 0
-7 5 -4 10 3 6 8 10 11 10 2 0 4 -4 4 -10z m-1255 -32 l16 -33 -20 25 c-20 24
-26 40 -16 40 2 0 12 -15 20 -32z m1189 -18 c-21 -31 -24 -44 -16 -52 9 -9 19
-6 39 14 25 23 69 36 57 17 -2 -5 -11 -6 -19 -3 -8 4 -18 -1 -21 -10 -9 -24
-1 -28 32 -16 23 9 26 9 17 -1 -7 -7 -27 -13 -46 -14 -19 -1 -39 -5 -45 -8 -5
-4 -16 0 -23 9 -12 14 -14 14 -26 -2 -12 -16 -13 -16 -13 -1 0 9 4 17 10 17 5
0 23 20 40 45 38 56 50 60 14 5z m-950 4 c3 -8 2 -12 -4 -9 -6 3 -10 10 -10
16 0 14 7 11 14 -7z m1066 -4 c0 -5 -5 -10 -11 -10 -5 0 -7 5 -4 10 3 6 8 10
11 10 2 0 4 -4 4 -10z m-409 -27 c-12 -20 -14 -14 -5 12 4 9 9 14 11 11 3 -2
0 -13 -6 -23z m-921 -3 c6 -11 8 -20 6 -20 -3 0 -10 9 -16 20 -6 11 -8 20 -6
20 3 0 10 -9 16 -20z m1360 0 c-8 -6 -22 -10 -30 -9 -9 0 -5 6 10 14 27 14 44
10 20 -5z m-1205 -10 c3 -5 1 -10 -4 -10 -6 0 -11 5 -11 10 0 6 2 10 4 10 3 0
8 -4 11 -10z m-917 -14 c-7 -8 -15 -12 -17 -11 -5 6 10 25 20 25 5 0 4 -6 -3
-14z m1002 0 c0 -2 -9 -6 -20 -9 -11 -3 -18 -1 -14 4 5 9 34 13 34 5z m640 -5
c0 -6 -4 -12 -8 -15 -5 -3 -9 1 -9 9 0 8 4 15 9 15 4 0 8 -4 8 -9z m240 -5 c0
-2 -7 -7 -16 -10 -8 -3 -12 -2 -9 4 6 10 25 14 25 6z m-1 -37 c-22 -13 -31
-11 -17 5 7 8 17 12 22 9 4 -3 2 -9 -5 -14z m161 -2 c60 25 59 15 0 -12 -39
-17 -43 -18 -68 -3 -15 9 -28 22 -31 30 -2 7 8 2 23 -11 l26 -25 50 21z m-80
-50 c0 -6 -11 0 -25 13 -22 20 -28 22 -51 11 -39 -17 -40 -7 -2 12 31 15 34
15 55 -5 13 -12 23 -26 23 -31z m-1110 21 c0 -18 -2 -20 -9 -8 -6 8 -7 18 -5
22 9 14 14 9 14 -14z m637 7 c0 -8 -4 -15 -9 -15 -4 0 -8 7 -8 15 0 8 4 15 8
15 5 0 9 -7 9 -15z m-467 -13 c0 -4 -9 -12 -19 -17 -11 -6 -39 -25 -63 -43
-34 -27 -31 -23 12 17 53 49 70 59 70 43z m727 -29 c-3 -10 -5 -4 -5 12 0 17
2 24 5 18 2 -7 2 -21 0 -30z m43 18 c0 -6 -4 -13 -10 -16 -5 -3 -10 1 -10 9 0
9 5 16 10 16 6 0 10 -4 10 -9z m30 5 c0 -3 -4 -8 -10 -11 -5 -3 -10 -1 -10 4
0 6 5 11 10 11 6 0 10 -2 10 -4z m87 -14 c13 -8 21 -117 10 -129 -4 -3 -7 14
-7 38 0 62 -13 73 -61 48 -22 -11 -39 -15 -39 -10 0 5 13 14 30 21 16 7 29 15
28 19 -2 22 15 28 39 13z m-1700 -69 c-12 -12 -20 -14 -28 -6 -7 7 -5 15 7 27
12 12 20 14 27 7 8 -8 6 -16 -6 -28z m683 11 c0 -2 -9 -4 -20 -4 -11 0 -20 4
-20 9 0 5 9 7 20 4 11 -3 20 -7 20 -9z m836 -31 c-3 -5 -111 -42 -114 -39 -2
3 17 14 43 25 30 13 49 29 53 43 l6 23 6 -25 c4 -14 6 -26 6 -27z m21 -30 c-2
-16 -4 -3 -4 27 0 30 2 43 4 28 2 -16 2 -40 0 -55z m-727 49 c-8 -3 -24 -12
-35 -21 -14 -11 -13 -8 4 11 13 15 29 24 34 21 7 -4 6 -8 -3 -11z m-350 -23
c0 -5 -4 -9 -8 -9 -5 0 -9 7 -9 15 0 8 4 12 9 9 4 -3 8 -9 8 -15z m845 1 c-3
-5 -12 -10 -18 -10 -7 0 -6 4 3 10 19 12 23 12 15 0z m495 0 c-8 -5 -19 -10
-25 -10 -5 0 -3 5 5 10 8 5 20 10 25 10 6 0 3 -5 -5 -10z m-1800 -29 c0 -10
-7 -24 -15 -31 -9 -7 -13 -21 -10 -31 8 -26 -16 -60 -37 -53 -10 3 -18 1 -18
-5 0 -6 7 -11 15 -11 9 0 15 -9 15 -25 0 -14 -2 -25 -4 -25 -13 0 -106 105
-102 116 3 8 20 10 52 6 34 -3 45 -2 40 7 -4 6 -20 11 -37 11 -34 0 -37 10 -9
35 12 11 29 16 44 13 14 -3 31 -1 38 3 20 13 28 11 28 -10z m671 10 c-7 -5
-10 -14 -7 -20 4 -6 2 -11 -3 -11 -6 0 -11 9 -11 20 0 12 7 20 18 20 13 0 14
-2 3 -9z m599 5 c0 -2 -7 -7 -16 -10 -8 -3 -12 -2 -9 4 6 10 25 14 25 6z m467
-18 c-3 -8 -6 -5 -6 6 -1 11 2 17 5 13 3 -3 4 -12 1 -19z m480 6 c-3 -3 -12
-4 -19 -1 -8 3 -5 6 6 6 11 1 17 -2 13 -5z m-1477 -24 c6 -11 8 -20 6 -20 -3
0 -10 9 -16 20 -6 11 -8 20 -6 20 3 0 10 -9 16 -20z m-230 -16 c-8 -8 -23 -20
-34 -25 -13 -6 -10 0 9 15 34 29 43 33 25 10z m1213 -11 c7 3 20 8 30 12 9 4
17 3 17 -3 0 -6 3 -17 6 -26 4 -10 -5 -20 -26 -31 -18 -9 -35 -14 -38 -11 -3
4 9 12 26 18 41 16 41 26 0 30 -21 2 -33 9 -34 18 -1 10 0 11 3 2 3 -8 10 -11
16 -9z m-453 -12 c0 -5 -7 -12 -16 -15 -14 -5 -15 -4 -4 9 14 17 20 19 20 6z
m-823 -7 c-3 -3 -12 -4 -19 -1 -8 3 -5 6 6 6 11 1 17 -2 13 -5z m88 -4 c-3 -5
-16 -15 -28 -21 -21 -10 -21 -9 2 10 25 23 36 27 26 11z m1359 -21 c-8 -14
-21 -11 -21 5 0 8 6 12 14 9 7 -3 10 -9 7 -14z m-1298 -37 c0 -45 0 -46 -9
-15 -8 27 -5 63 5 63 2 0 3 -21 4 -48z m98 22 c3 -8 2 -12 -4 -9 -6 3 -10 10
-10 16 0 14 7 11 14 -7z m90 0 c3 -8 2 -12 -4 -9 -6 3 -10 10 -10 16 0 14 7
11 14 -7z m504 -6 c7 -7 12 -16 12 -22 0 -5 -6 -1 -14 9 -8 11 -19 16 -30 12
-10 -4 -15 -3 -11 3 8 14 28 13 43 -2z m-821 -40 c-3 -7 -5 -2 -5 12 0 14 2
19 5 13 2 -7 2 -19 0 -25z m803 -8 c0 -5 -4 -10 -10 -10 -5 0 -10 5 -10 10 0
6 5 10 10 10 6 0 10 -4 10 -10z m27 -57 c-3 -10 -5 -4 -5 12 0 17 2 24 5 18 2
-7 2 -21 0 -30z m240 -25 c-3 -8 -6 -5 -6 6 -1 11 2 17 5 13 3 -3 4 -12 1 -19z
m743 -13 c0 -19 -4 -35 -10 -35 -5 0 -10 16 -10 35 0 19 5 35 10 35 6 0 10
-16 10 -35z m-925 -22 c-27 -14 -57 -31 -65 -38 -8 -7 -26 -15 -39 -18 l-23
-6 20 20 c12 10 25 19 31 19 5 0 29 11 52 25 24 14 51 25 59 24 8 0 -7 -11
-35 -26z m-1336 -49 c39 -84 40 -104 3 -104 -15 0 -33 5 -40 12 -14 14 -17
158 -3 158 5 0 23 -30 40 -66z m2151 52 c0 -2 -3 -11 -6 -20 -5 -12 -9 -13
-24 -4 -10 7 -16 16 -14 20 5 8 44 11 44 4z m110 -61 c0 -8 -4 -15 -10 -15 -5
0 -10 7 -10 15 0 8 5 15 10 15 6 0 10 -7 10 -15z m-2480 -36 c0 -24 -23 -21
-28 4 -2 10 3 17 12 17 10 0 16 -9 16 -21z m2014 -40 c-3 -5 -10 -7 -15 -3 -5
3 -7 10 -3 15 3 5 10 7 15 3 5 -3 7 -10 3 -15z m-1867 -51 c-3 -8 -6 -5 -6 6
-1 11 2 17 5 13 3 -3 4 -12 1 -19z m179 -33 c32 -19 68 -35 80 -35 13 0 25 -4
28 -9 7 -11 -76 -61 -101 -61 -10 0 -45 25 -78 55 -33 30 -68 58 -77 61 -36
11 -17 24 36 24 44 0 64 -7 112 -35z m1219 5 c3 -5 1 -10 -4 -10 -6 0 -11 5
-11 10 0 6 2 10 4 10 3 0 8 -4 11 -10z m-933 -87 c21 -19 17 -27 -24 -47 -30
-15 -33 -15 -56 6 l-25 23 17 -33 c10 -19 16 -35 14 -36 -32 -24 -56 -36 -73
-36 -25 0 -95 56 -95 75 0 16 87 58 101 49 5 -3 9 0 9 7 0 7 10 9 25 7 14 -3
28 -1 31 4 8 12 54 1 76 -19z m1208 3 c0 -3 -4 -8 -10 -11 -5 -3 -10 -1 -10 4
0 6 5 11 10 11 6 0 10 -2 10 -4z m-1203 -82 c-3 -3 -12 -4 -19 -1 -8 3 -5 6 6
6 11 1 17 -2 13 -5z m804 -44 c26 -15 24 -30 -5 -30 -23 0 -41 22 -29 34 8 8
11 8 34 -4z"/>
<path d="M2878 3843 c7 -3 16 -2 19 1 4 3 -2 6 -13 5 -11 0 -14 -3 -6 -6z"/>
<path d="M3316 3695 c-9 -26 -7 -32 5 -12 6 10 9 21 6 23 -2 3 -7 -2 -11 -11z"/>
<path d="M3285 3651 c-6 -11 9 -23 19 -14 9 9 7 23 -3 23 -6 0 -12 -4 -16 -9z"/>
<path d="M2683 3448 c-6 -7 -14 -20 -18 -28 -8 -13 -7 -13 8 -1 9 7 17 9 17 4
0 -5 14 -10 30 -11 17 -1 30 3 30 9 0 6 -7 8 -17 5 -10 -4 -14 -4 -10 0 7 8
-10 34 -23 34 -4 0 -12 -6 -17 -12z"/>
<path d="M2786 3411 c-3 -5 0 -11 7 -14 8 -3 14 1 14 9 0 16 -13 19 -21 5z"/>
<path d="M2495 3355 l-30 -13 26 -1 c15 -1 32 6 39 14 15 18 5 18 -35 0z"/>
<path d="M2607 3364 c-8 -8 1 -24 12 -24 4 0 8 7 8 15 0 16 -9 20 -20 9z"/>
<path d="M2651 3334 c0 -11 3 -14 6 -6 3 7 2 16 -1 19 -3 4 -6 -2 -5 -13z"/>
<path d="M2895 3340 c-19 -7 -19 -8 -2 -15 19 -8 31 -2 26 13 -2 5 -13 6 -24
2z"/>
<path d="M2525 3330 c-16 -4 -42 -5 -58 -2 -23 4 -26 2 -21 -13 4 -9 10 -13
13 -8 8 11 51 12 45 1 -3 -5 23 -8 58 -8 34 1 79 -1 98 -4 35 -6 35 -6 -8 14
-24 11 -48 18 -52 15 -5 -3 -11 -1 -15 5 -7 11 -16 11 -60 0z"/>
<path d="M2678 3323 c7 -3 16 -2 19 1 4 3 -2 6 -13 5 -11 0 -14 -3 -6 -6z"/>
<path d="M2416 3312 c-3 -6 -1 -14 5 -17 15 -10 25 3 12 16 -7 7 -13 7 -17 1z"/>
<path d="M2993 3299 c14 -22 27 -25 27 -5 0 7 -9 16 -19 19 -17 4 -18 2 -8
-14z"/>
<path d="M2461 3291 c-11 -7 -10 -11 6 -19 10 -6 25 -7 32 -3 7 5 37 6 66 4
31 -3 56 0 60 6 4 7 -15 11 -59 11 -35 0 -70 2 -78 5 -7 3 -19 1 -27 -4z"/>
<path d="M2973 3283 c-7 -3 -13 -12 -13 -21 0 -15 2 -15 17 1 18 18 16 27 -4
20z"/>
<path d="M2545 3237 l50 -24 -3 -51 c-2 -29 -7 -50 -10 -48 -4 2 -6 -14 -6
-36 1 -33 6 -43 34 -60 23 -14 35 -16 40 -8 4 7 13 2 24 -14 20 -31 92 -70
101 -56 4 6 -6 20 -20 33 -54 45 -105 99 -105 110 1 7 18 -7 39 -30 21 -24 41
-43 43 -43 3 0 4 12 3 28 -2 18 -1 20 2 5 2 -13 9 -23 14 -23 5 0 8 -3 7 -7
-1 -5 6 -20 16 -35 10 -16 16 -34 13 -42 -3 -8 1 -17 9 -20 25 -9 17 53 -11
86 -22 25 -25 39 -25 101 l0 72 -43 18 c-23 9 -48 17 -55 17 -6 0 -12 5 -12
10 0 6 9 10 19 10 11 0 23 -4 26 -10 3 -5 14 -10 23 -10 9 0 -5 11 -32 25 -39
20 -64 25 -120 25 l-71 0 50 -23z m75 -102 c10 -12 10 -15 -4 -15 -9 0 -16 7
-16 15 0 8 2 15 4 15 2 0 9 -7 16 -15z m90 -25 c0 -5 -4 -10 -10 -10 -5 0 -10
5 -10 10 0 6 5 10 10 10 6 0 10 -4 10 -10z m-70 -10 c0 -5 -4 -10 -9 -10 -6 0
-13 5 -16 10 -3 6 1 10 9 10 9 0 16 -4 16 -10z m-30 -40 c0 -5 -4 -10 -10 -10
-5 0 -10 5 -10 10 0 6 5 10 10 10 6 0 10 -4 10 -10z"/>
<path d="M2680 3256 c0 -2 7 -7 16 -10 8 -3 12 -2 9 4 -6 10 -25 14 -25 6z"/>
<path d="M2283 3233 c9 -2 25 -2 35 0 9 3 1 5 -18 5 -19 0 -27 -2 -17 -5z"/>
<path d="M2730 3236 c0 -2 7 -7 16 -10 8 -3 12 -2 9 4 -6 10 -25 14 -25 6z"/>
<path d="M2735 3200 c-3 -5 1 -10 10 -10 9 0 13 5 10 10 -3 6 -8 10 -10 10 -2
0 -7 -4 -10 -10z"/>
<path d="M2780 3118 c-5 -81 -3 -88 18 -109 12 -12 25 -19 29 -15 3 3 0 6 -7
6 -7 0 -10 3 -7 7 4 3 0 14 -8 22 -9 11 -15 44 -17 96 l-3 80 -5 -87z"/>
<path d="M2929 3153 c-1 -56 -6 -74 -28 -104 -21 -28 -29 -89 -12 -89 12 0 22
30 14 42 -3 7 -1 8 5 4 12 -7 45 47 35 58 -3 3 -5 33 -4 66 1 33 0 60 -3 60
-4 0 -6 -17 -7 -37z"/>
<path d="M2520 3145 c-1 -11 -2 -31 -2 -45 1 -22 0 -22 -6 -5 -4 11 -16 21
-27 22 -11 1 -14 0 -7 -3 6 -3 12 -12 12 -20 0 -8 5 -14 10 -14 6 0 12 0 15 0
3 0 12 -7 21 -15 19 -19 34 -11 34 18 0 18 -2 19 -10 7 -13 -21 -28 -3 -33 40
-2 19 -5 26 -7 15z"/>
<path d="M2844 3149 c-6 -8 -8 -25 -4 -39 l7 -25 8 27 c9 35 3 55 -11 37z"/>
<path d="M2491 3141 c-8 -6 -9 -11 -3 -15 6 -3 14 -1 17 5 9 14 2 20 -14 10z"/>
<path d="M2812 3095 c-1 -42 3 -56 28 -85 l29 -35 1 32 c0 21 -8 41 -24 56
-14 14 -26 37 -29 53 -2 18 -4 10 -5 -21z"/>
<path d="M2971 3059 c-28 -54 -30 -61 -11 -44 23 21 53 82 47 98 -1 5 -18 -19
-36 -54z"/>
<path d="M2866 3094 c-8 -21 10 -42 23 -28 6 5 5 16 -3 27 -13 16 -14 16 -20
1z"/>
<path d="M3070 3000 c-8 -15 -8 -20 2 -20 17 0 32 12 36 28 4 20 -26 14 -38
-8z"/>
<path d="M2615 2990 c-3 -5 -1 -10 4 -10 6 0 11 5 11 10 0 6 -2 10 -4 10 -3 0
-8 -4 -11 -10z"/>
<path d="M2852 2926 c2 -31 8 -51 17 -54 11 -4 13 4 8 38 -8 64 -29 77 -25 16z"/>
<path d="M2820 2929 c0 -16 4 -28 9 -25 8 5 3 56 -5 56 -2 0 -4 -14 -4 -31z"/>
<path d="M2628 2880 c13 -11 21 -24 18 -29 -3 -5 0 -11 8 -14 10 -4 12 0 8 15
-3 11 1 24 9 30 11 8 10 9 -3 4 -10 -3 -18 -1 -18 4 0 6 -10 10 -22 10 l-23
-1 23 -19z"/>
<path d="M2790 2820 c0 -5 7 -10 16 -10 8 0 12 5 9 10 -3 6 -10 10 -16 10 -5
0 -9 -4 -9 -10z"/>
<path d="M3005 2740 c-3 -5 -1 -10 4 -10 6 0 11 5 11 10 0 6 -2 10 -4 10 -3 0
-8 -4 -11 -10z"/>
<path d="M1991 3441 c-8 -6 -9 -11 -3 -15 6 -3 14 -1 17 5 9 14 2 20 -14 10z"/>
<path d="M3340 3436 c0 -2 7 -7 16 -10 8 -3 12 -2 9 4 -6 10 -25 14 -25 6z"/>
<path d="M2510 2816 c0 -2 7 -9 15 -16 13 -11 14 -10 9 4 -5 14 -24 23 -24 12z"/>
<path d="M3570 2649 c0 -5 5 -7 10 -4 6 3 10 8 10 11 0 2 -4 4 -10 4 -5 0 -10
-5 -10 -11z"/>
<path d="M2564 4144 c3 -9 6 -20 6 -25 0 -5 5 -9 10 -9 6 0 10 11 10 25 0 16
-6 25 -16 25 -11 0 -14 -5 -10 -16z"/>
<path d="M2692 4115 c0 -25 4 -45 9 -45 11 0 12 77 1 84 -5 3 -9 -15 -10 -39z"/>
<path d="M2776 4153 c-7 -7 13 -33 25 -33 5 0 9 6 9 14 0 15 -24 28 -34 19z"/>
<path d="M1965 4132 c-4 -10 9 -12 58 -6 34 4 63 8 65 9 2 2 -24 5 -57 7 -43
2 -62 -1 -66 -10z"/>
<path d="M2820 4123 c0 -13 -3 -23 -7 -23 -5 0 -8 -18 -8 -39 0 -22 3 -43 8
-47 4 -4 7 2 7 14 0 34 11 52 31 52 24 0 25 28 2 37 -10 4 -21 11 -25 17 -4 6
-8 1 -8 -11z"/>
<path d="M3001 4094 c0 -11 3 -14 6 -6 3 7 2 16 -1 19 -3 4 -6 -2 -5 -13z"/>
<path d="M2990 4055 c0 -8 2 -15 4 -15 2 0 6 7 10 15 3 8 1 15 -4 15 -6 0 -10
-7 -10 -15z"/>
<path d="M2740 4046 c0 -2 9 -6 20 -9 11 -3 18 -1 14 4 -5 9 -34 13 -34 5z"/>
<path d="M2915 4040 c-3 -5 -1 -10 4 -10 6 0 11 5 11 10 0 6 -2 10 -4 10 -3 0
-8 -4 -11 -10z"/>
<path d="M1526 4021 c-4 -6 0 -11 9 -11 9 0 13 -4 10 -10 -7 -12 2 -12 30 0
20 9 20 9 0 9 -12 1 -26 6 -32 12 -8 8 -13 8 -17 0z"/>
<path d="M2988 4007 c-3 -19 -2 -25 4 -19 6 6 8 18 6 28 -3 14 -5 12 -10 -9z"/>
<path d="M1710 4011 c0 -9 62 -22 70 -14 8 7 -24 23 -47 23 -13 0 -23 -4 -23
-9z"/>
<path d="M2740 4016 c0 -2 7 -6 15 -10 8 -3 15 -1 15 4 0 6 -7 10 -15 10 -8 0
-15 -2 -15 -4z"/>
<path d="M3013 4003 c0 -8 13 -13 29 -13 16 0 28 5 28 13 0 7 -12 12 -28 12
-16 0 -29 -5 -29 -12z"/>
<path d="M3081 3973 c1 -10 5 -31 9 -48 6 -26 7 -24 7 18 0 26 -3 47 -8 47 -5
0 -8 -8 -8 -17z"/>
<path d="M1795 3970 c3 -5 8 -10 11 -10 2 0 4 5 4 10 0 6 -5 10 -11 10 -5 0
-7 -4 -4 -10z"/>
<path d="M2966 3954 c-7 -18 11 -37 28 -31 23 9 20 43 -4 43 -11 0 -21 -5 -24
-12z"/>
<path d="M3420 3960 c-10 -6 -11 -10 -2 -10 6 0 11 -5 10 -11 -2 -6 3 -14 10
-16 14 -6 16 13 2 22 -6 4 -8 11 -5 16 8 11 4 11 -15 -1z"/>
<path d="M3458 3933 c5 -21 7 -23 10 -9 2 10 0 22 -6 28 -6 6 -7 0 -4 -19z"/>
<path d="M3086 3877 c3 -10 9 -15 12 -12 3 3 0 11 -7 18 -10 9 -11 8 -5 -6z"/>
<path d="M3349 3863 c0 -5 -2 -16 -4 -25 -2 -10 0 -20 5 -23 4 -3 10 9 12 25
3 17 1 30 -4 30 -4 0 -8 -3 -9 -7z"/>
<path d="M1740 3840 c0 -5 5 -10 10 -10 6 0 10 5 10 10 0 6 -4 10 -10 10 -5 0
-10 -4 -10 -10z"/>
<path d="M1785 3830 c3 -5 11 -10 16 -10 6 0 7 5 4 10 -3 6 -11 10 -16 10 -6
0 -7 -4 -4 -10z"/>
<path d="M3045 3810 c-3 -5 -2 -10 4 -10 5 0 13 5 16 10 3 6 2 10 -4 10 -5 0
-13 -4 -16 -10z"/>
<path d="M3595 3740 c-3 -6 1 -7 9 -4 18 7 21 14 7 14 -6 0 -13 -4 -16 -10z"/>
<path d="M1416 3687 c3 -10 9 -15 12 -12 3 3 0 11 -7 18 -10 9 -11 8 -5 -6z"/>
<path d="M1220 3675 c0 -8 7 -15 15 -15 8 0 15 7 15 15 0 8 -7 15 -15 15 -8 0
-15 -7 -15 -15z"/>
<path d="M3660 3599 c0 -6 -7 -9 -14 -6 -10 4 -13 1 -9 -9 8 -21 33 -17 33 6
0 11 -2 20 -5 20 -3 0 -5 -5 -5 -11z"/>
<path d="M1228 3490 l-3 -75 -36 -5 c-19 -4 -45 -13 -56 -21 -21 -14 -22 -23
-22 -184 0 -94 1 -183 1 -200 3 -79 1 -98 -16 -111 -16 -11 -16 -13 2 -18 11
-4 22 -16 25 -26 3 -11 10 -20 15 -20 6 0 8 30 5 79 -3 47 0 88 6 100 8 14 8
28 0 48 -14 36 -20 294 -6 311 12 15 113 16 123 0 5 -8 11 -6 20 7 18 24 0 62
-21 45 -19 -16 -24 -1 -20 61 2 30 0 61 -5 69 -6 10 -10 -10 -12 -60z m-88
-465 c0 -8 -4 -15 -9 -15 -13 0 -22 16 -14 24 11 11 23 6 23 -9z"/>
<path d="M3777 3543 c-4 -3 -7 -11 -7 -17 0 -6 5 -5 12 2 6 6 9 14 7 17 -3 3
-9 2 -12 -2z"/>
<path d="M3752 3453 c-17 -20 -30 -39 -27 -42 3 -3 17 7 31 22 31 33 47 26 39
-16 -7 -30 -6 -31 11 -15 16 15 16 19 1 41 -12 18 -13 27 -4 36 8 8 7 11 -3
10 -8 0 -30 -16 -48 -36z"/>
<path d="M1282 3333 c4 -22 24 -27 31 -9 3 8 -2 16 -14 19 -15 4 -19 1 -17
-10z"/>
<path d="M1250 3300 c0 -11 6 -20 14 -20 24 0 26 15 5 28 -16 11 -19 9 -19 -8z"/>
<path d="M3616 3258 c-12 -17 -13 -24 -3 -30 20 -13 24 -9 25 22 1 36 -2 37
-22 8z"/>
<path d="M3572 3261 c2 -7 7 -12 11 -12 12 1 9 15 -3 20 -7 2 -11 -2 -8 -8z"/>
<path d="M3711 3186 c-10 -12 -9 -14 8 -9 12 3 21 1 21 -6 0 -6 -7 -11 -15
-11 -8 0 -15 -6 -15 -14 0 -8 8 -12 23 -9 28 5 31 27 7 48 -15 14 -19 14 -29
1z"/>
<path d="M1295 3180 c-3 -5 1 -10 10 -10 9 0 13 5 10 10 -3 6 -8 10 -10 10 -2
0 -7 -4 -10 -10z"/>
<path d="M3838 3058 c2 -10 8 -18 12 -18 4 0 10 8 12 18 3 12 -1 18 -12 18
-11 0 -15 -6 -12 -18z"/>
<path d="M930 3030 c0 -12 24 -12 60 0 21 7 19 8 -17 9 -24 1 -43 -3 -43 -9z"/>
<path d="M3813 2926 c-6 -10 -8 -27 -5 -38 3 -15 7 -16 19 -7 11 10 20 8 43
-10 34 -24 41 -14 10 14 -11 10 -20 25 -20 33 0 8 -6 12 -14 9 -8 -3 -16 -1
-19 6 -2 7 -8 4 -14 -7z"/>
<path d="M983 2885 c0 -17 6 -18 25 -6 11 7 10 10 -3 15 -22 8 -22 8 -22 -9z"/>
<path d="M3780 2874 c0 -8 5 -12 10 -9 6 3 10 10 10 16 0 5 -4 9 -10 9 -5 0
-10 -7 -10 -16z"/>
<path d="M3820 2821 c0 -24 17 -37 60 -46 19 -4 40 -11 46 -16 8 -6 14 -4 17
5 4 10 1 13 -7 10 -7 -3 -19 2 -26 11 -7 8 -25 15 -41 15 -22 0 -29 5 -29 20
0 11 -4 20 -10 20 -5 0 -10 -8 -10 -19z"/>
<path d="M3910 2830 c0 -5 10 -10 23 -10 18 0 19 2 7 10 -19 13 -30 13 -30 0z"/>
<path d="M3652 2758 c-14 -14 -16 -38 -4 -38 12 0 32 23 32 37 0 16 -12 17
-28 1z"/>
<path d="M3816 2515 c-3 -10 -2 -23 4 -29 15 -15 22 -2 12 24 -8 21 -9 22 -16
5z"/>
<path d="M3720 2510 c0 -5 5 -10 11 -10 5 0 7 5 4 10 -3 6 -8 10 -11 10 -2 0
-4 -4 -4 -10z"/>
<path d="M3756 2495 c-3 -9 0 -15 9 -15 8 0 15 7 15 15 0 8 -4 15 -9 15 -5 0
-11 -7 -15 -15z"/>
<path d="M3720 2409 c0 -5 5 -7 10 -4 6 3 10 8 10 11 0 2 -4 4 -10 4 -5 0 -10
-5 -10 -11z"/>
<path d="M3634 2336 c-9 -24 12 -44 28 -28 10 10 8 16 -5 29 -15 15 -17 15
-23 -1z"/>
<path d="M3675 2240 c-3 -5 -5 -10 -3 -11 43 -7 247 -8 251 -2 4 6 -33 9 -91
9 -53 -1 -109 2 -124 7 -16 4 -29 3 -33 -3z"/>
<path d="M3940 2235 c0 -8 5 -15 10 -15 6 0 10 7 10 15 0 8 -4 15 -10 15 -5 0
-10 -7 -10 -15z"/>
<path d="M3760 2171 c0 -6 4 -13 10 -16 6 -3 7 1 4 9 -7 18 -14 21 -14 7z"/>
<path d="M1255 1949 c-11 -17 1 -21 15 -4 8 9 8 15 2 15 -6 0 -14 -5 -17 -11z"/>
<path d="M3463 1759 c-31 -20 -43 -39 -25 -39 12 0 79 59 67 59 -5 1 -25 -9
-42 -20z"/>
<path d="M3617 1753 c3 -7 9 -10 14 -7 14 8 11 21 -5 21 -8 0 -12 -6 -9 -14z"/>
<path d="M3797 1744 c-8 -8 1 -24 14 -24 5 0 9 7 9 15 0 15 -12 20 -23 9z"/>
<path d="M2948 1533 c7 -3 16 -2 19 1 4 3 -2 6 -13 5 -11 0 -14 -3 -6 -6z"/>
<path d="M3020 1520 c0 -5 5 -10 10 -10 6 0 10 5 10 10 0 6 -4 10 -10 10 -5 0
-10 -4 -10 -10z"/>
<path d="M1350 1210 l0 -150 88 0 c83 0 89 2 120 29 32 29 32 31 32 121 0 89
0 91 -32 120 -31 28 -38 29 -120 30 l-88 0 0 -150z m162 83 c14 -13 18 -31 18
-88 0 -42 -5 -76 -12 -83 -7 -7 -34 -12 -60 -12 l-48 0 0 93 c0 52 3 97 7 100
13 13 77 7 95 -10z"/>
<path d="M1654 1345 c-7 -18 1 -269 9 -281 3 -5 46 -8 96 -6 89 3 91 4 91 28
0 23 -3 24 -71 24 l-70 0 3 38 3 37 58 -3 c55 -4 57 -3 57 22 0 24 -3 25 -57
28 l-58 3 -3 38 -3 39 73 -4 73 -3 3 28 3 27 -101 0 c-81 0 -102 -3 -106 -15z"/>
<path d="M1894 1343 c3 -10 28 -76 54 -148 43 -116 51 -130 74 -133 32 -4 40
7 73 102 15 44 38 104 51 134 13 30 24 56 24 58 0 2 -14 4 -30 4 -20 0 -33 -6
-37 -17 -14 -41 -65 -168 -68 -172 -13 -12 -36 30 -56 104 -24 85 -24 85 -57
85 -27 0 -32 -3 -28 -17z"/>
<path d="M2231 1326 l-33 -34 7 -88 c9 -104 14 -116 57 -137 42 -20 154 -12
163 11 8 23 -13 32 -77 32 -87 0 -88 1 -88 87 0 102 8 115 73 113 94 -3 97 -2
97 25 0 25 -1 25 -83 25 -81 0 -84 -1 -116 -34z"/>
<path d="M2497 1332 c-25 -27 -27 -34 -27 -124 0 -95 0 -97 31 -122 26 -22 40
-26 94 -26 101 0 123 31 120 169 -1 70 -3 75 -35 102 -28 25 -41 29 -94 29
-55 0 -65 -3 -89 -28z m150 -37 c20 -14 22 -23 19 -83 -2 -37 -4 -72 -5 -79 0
-6 -15 -16 -32 -22 -80 -28 -109 -5 -109 88 0 85 16 111 68 111 21 0 47 -7 59
-15z"/>
<path d="M2780 1208 l0 -148 80 0 c86 0 131 15 150 49 5 11 10 58 10 105 0 85
0 85 -34 111 -29 22 -45 26 -120 29 l-86 3 0 -149z m172 85 c14 -12 18 -31 18
-83 0 -81 -13 -102 -66 -105 -68 -5 -74 4 -74 105 0 61 4 90 13 93 28 12 91 6
109 -10z"/>
<path d="M3122 1352 l-43 -3 3 -142 3 -142 98 -3 c92 -3 97 -2 97 18 0 18 -6
20 -69 20 -75 0 -84 8 -71 60 5 23 11 25 63 28 49 3 57 6 57 22 0 18 -7 20
-61 20 l-60 0 3 38 3 37 70 0 c68 0 70 1 70 25 0 24 -3 25 -60 25 -33 0 -79
-1 -103 -3z"/>
<path d="M3346 1332 c-3 -9 -5 -75 -3 -145 l2 -128 25 3 c22 3 26 9 30 53 4
42 8 50 27 53 25 4 58 -26 85 -76 11 -20 25 -32 38 -32 26 0 25 2 -6 56 l-27
45 23 32 c34 45 34 95 2 130 -24 25 -31 27 -108 27 -70 0 -83 -3 -88 -18z
m158 -38 c17 -17 19 -27 10 -61 -6 -20 -13 -23 -60 -23 l-54 0 0 50 0 50 44 0
c27 0 51 -6 60 -16z"/>
<path d="M3623 1308 c66 -110 71 -123 72 -183 1 -57 2 -60 28 -63 27 -3 27 -2
27 55 0 38 6 68 18 88 10 17 33 56 51 88 l32 57 -30 0 c-25 0 -34 -7 -58 -47
-44 -76 -44 -76 -79 -14 -24 44 -37 57 -59 59 l-27 4 25 -44z"/>
</g>
</svg>
